<svg version="1.1" xmlns="http://www.w3.org/2000/svg" xmlns:xlink="http://www.w3.org/1999/xlink" width="500" height="500"><defs><clipPath id="clip-1"><rect x="52.00406" y="20.29411" transform="scale(2.46377,2.46377)" width="98.933" height="100"></rect></clipPath></defs><g data-paper-data="{&quot;description&quot;:&quot;Logo for zack-xy\n================\n\nThis logo was generated by MarkMaker at http://emblemmatic.org/markmaker/ and may be composed of elements designed by others.\n\nThe font is Alegreya Sans designed by Juan Pablo del Peral and released under the OFL license via Google Fonts: https://www.google.com/fonts/specimen/Alegreya%20Sans. The font includes this copyright statement: Copyright (c) 2013, Juan Pablo del Peral (juan@huertatipografica.com), with Reserved Font Names \\\&quot;Alegreya Sans\\\&quot; \\\&quot;Alegreya Sans SC\\\n\nThe symbol is 'sun' designed by undefined and released into the public domain at the Noun Project: https://thenounproject.com/term/sun/170.\n\nMarkMaker uses semantic data from the Princeton University WordNet database http://wordnet.princeton.edu and font descriptions from Google Fonts https://www.google.com/fonts.&quot;}" fill="#158f43" fill-rule="nonzero" stroke="none" stroke-width="1" stroke-linecap="butt" stroke-linejoin="miter" stroke-miterlimit="10" stroke-dasharray="" stroke-dashoffset="0" font-family="none" font-weight="none" font-size="none" text-anchor="none" style="mix-blend-mode: normal"><g data-paper-data="{&quot;elementType&quot;:&quot;logo&quot;}"><g data-paper-data="{&quot;elementType&quot;:&quot;text&quot;}"><g data-paper-data="{&quot;baseline&quot;:70.2,&quot;elementType&quot;:&quot;row&quot;}"><g data-paper-data="{&quot;baselineProportion&quot;:0.7861142217245242,&quot;fontSize&quot;:100,&quot;baseline&quot;:70.2,&quot;elementType&quot;:&quot;word&quot;}"><path d="M107.64715,423.36087h27.67972l9.88561,-0.72841l0.41624,0.62435l-0.72841,7.07602l-12.07086,-0.20812h-29.24061l-5.93137,0.31218v-6.13949l37.46128,-54.00667h-25.7026l-9.98967,0.72841l-0.5203,-0.62435l0.62435,-7.07602l40.37493,0.10406l5.0989,-0.10406v6.24355z" data-paper-data="{&quot;elementType&quot;:&quot;letter&quot;,&quot;baseline&quot;:64.2,&quot;baselineProportion&quot;:0.9953488372093023,&quot;fontSize&quot;:100}"></path><path d="M173.4125,381.63317c4.50923,0 8.06458,1.10996 10.66606,3.32989c2.60148,2.21993 3.90222,5.27233 3.90222,9.1572c0,1.17934 -0.20812,5.44576 -0.62435,12.79927c-0.41624,7.35351 -0.62435,11.65462 -0.62435,12.90333c0,1.5262 0.2428,2.58413 0.72841,3.1738c0.48561,0.58967 1.31808,0.8845 2.49742,0.8845c1.04059,0 2.21993,-0.20812 3.53801,-0.62435l0.83247,0.72841l-0.83247,4.68266c-2.01181,1.17934 -3.98893,1.87306 -5.93137,2.08118c-2.15055,-0.20812 -3.86753,-0.97122 -5.15093,-2.2893c-1.2834,-1.31808 -1.95978,-3.12177 -2.02915,-5.41107h-0.72841c-3.74613,3.8155 -7.45757,6.41698 -11.13432,7.80443c-4.64797,0 -8.2727,-1.16199 -10.87418,-3.48598c-2.60148,-2.32399 -3.90222,-5.49779 -3.90222,-9.52141c0,-5.89668 3.22583,-9.60812 9.6775,-11.13432l16.85757,-3.95425l0.10406,-6.76384c0,-2.70554 -0.71107,-4.78672 -2.13321,-6.24355c-1.42214,-1.45683 -3.45129,-2.18524 -6.08746,-2.18524c-4.50923,0 -9.40001,2.2893 -14.67233,6.8679l-0.83247,-0.41624l-1.04059,-5.93137c5.75794,-4.30111 11.68931,-6.45166 17.79411,-6.45166M165.08777,411.70625c-1.38745,0.41624 -2.39336,0.98856 -3.01771,1.71698c-0.62435,0.72841 -0.93653,1.82103 -0.93653,3.27786c0,2.2893 0.6417,4.07565 1.92509,5.35904c1.2834,1.2834 3.00037,1.92509 5.15093,1.92509c3.8155,0 7.70037,-2.46273 11.65462,-7.3882l0.31218,-8.53285z" data-paper-data="{&quot;elementType&quot;:&quot;letter&quot;,&quot;baseline&quot;:46.6,&quot;baselineProportion&quot;:0.9852008456659619,&quot;fontSize&quot;:100}"></path><path d="M222.94463,381.63317c4.64797,0 8.9144,0.93653 12.79927,2.8096l-1.45683,7.18008l-0.93653,0.31218c-3.60738,-2.35867 -7.18008,-3.53801 -10.71809,-3.53801c-4.09299,0 -7.28414,1.56089 -9.57344,4.68266c-2.2893,3.12177 -3.43395,7.49226 -3.43395,13.11145c0,5.61919 1.19668,10.0417 3.59004,13.26754c2.39336,3.22583 5.70591,4.83875 9.93764,4.83875c3.95425,0 7.83912,-1.17934 11.65462,-3.53801l0.93653,0.5203l-0.93653,6.97196c-4.23174,1.80369 -8.46347,2.70554 -12.69521,2.70554c-6.31292,0 -11.27307,-2.1679 -14.88045,-6.50369c-3.60738,-4.3358 -5.41107,-10.28451 -5.41107,-17.84614c0,-7.70037 1.89041,-13.78783 5.67122,-18.26237c3.78081,-4.47454 8.93174,-6.71181 15.45278,-6.71181z" data-paper-data="{&quot;elementType&quot;:&quot;letter&quot;,&quot;baseline&quot;:46.6,&quot;baselineProportion&quot;:0.9831223628691984,&quot;fontSize&quot;:100}"></path><path d="M254.37048,430.12471h-8.22067l0.5203,-20.29152l-0.41624,-52.02955l8.22067,-0.72841l-0.62435,52.13361l0.5203,20.91588M264.04798,404.31805c4.78672,6.45166 11.4465,14.56827 19.97935,24.34983v0.93653c-1.10996,0.34686 -3.5727,0.83247 -7.3882,1.45683l-1.04059,-0.41624c-7.35351,-8.67159 -13.94392,-17.20444 -19.77123,-25.59854v-0.72841l14.88045,-17.58599l2.8096,-4.26642h9.26126z" data-paper-data="{&quot;elementType&quot;:&quot;letter&quot;,&quot;baseline&quot;:70.2,&quot;baselineProportion&quot;:0.9873417721518987,&quot;fontSize&quot;:100}"></path><path d="M310.77052,404.83835l-25.07824,3.64207l-0.83247,-0.83247v-5.20296l25.1823,-3.53801l0.72841,0.72841z" data-paper-data="{&quot;elementType&quot;:&quot;letter&quot;,&quot;baseline&quot;:30,&quot;baselineProportion&quot;:3.2608695652173902,&quot;fontSize&quot;:100}"></path><path d="M336.99341,401.09222l9.05314,-14.36016l2.39336,-4.26642h7.70037l-14.88045,23.30924l15.92104,23.93359l-8.74096,0.83247l-2.2893,-4.89078l-10.19779,-15.08857l-9.98967,15.50481l-2.08118,4.0583h-7.70037l15.29669,-24.24577l-15.19263,-23.10112l8.84502,-0.62435l1.97712,4.47454z" data-paper-data="{&quot;elementType&quot;:&quot;letter&quot;,&quot;baseline&quot;:46.1,&quot;baselineProportion&quot;:0.9913978494623654,&quot;fontSize&quot;:100}"></path><path d="M380.90635,420.86345h0.72841l11.55056,-31.73803l1.56089,-6.65978h7.59631l-16.96163,45.89006c-2.21993,6.17417 -5.16827,10.92621 -8.84502,14.2561c-3.67675,3.32989 -8.70628,5.79262 -15.08857,7.3882h-0.83247c-1.66495,-1.66495 -2.94834,-3.39926 -3.85019,-5.20296l0.20812,-1.04059c5.27233,-0.97122 9.46938,-2.49742 12.59115,-4.5786c3.12177,-2.08118 5.79262,-5.0989 8.01255,-9.05314l-17.58599,-47.45095l8.01255,-0.5203l1.56089,6.13949z" data-paper-data="{&quot;elementType&quot;:&quot;letter&quot;,&quot;baseline&quot;:46.1,&quot;baselineProportion&quot;:0.7070552147239265,&quot;fontSize&quot;:100}"></path></g></g></g></g><g clip-path="url(#clip-1)" data-paper-data="{&quot;elementType&quot;:&quot;emblem&quot;}"><path d="M184.08802,129.26437l1.97841,-2.76928c0.41391,-0.57406 0.88696,-1.12348 1.32058,-1.69507l0.06652,0.15522l2.29131,-2.74217c3.00087,-3.60696 6.42058,-7.10305 9.98812,-10.11131l2.74464,-2.31594l-0.13058,-0.06406c0.49768,-0.37203 0.96826,-0.79826 1.47333,-1.16783l2.71015,-1.9858l-42.58871,-20.5774l2.37754,5.10247z"></path><path d="M172.0944,185.64279c-0.10348,-0.65783 -0.14783,-1.33536 -0.23652,-2.00058l0.18725,0.06159l-0.31536,-3.57c-0.19957,-2.31102 -0.32029,-4.62696 -0.32029,-6.94536c0,-2.45884 0.11087,-4.88812 0.32029,-7.28783l0.32522,-3.59464l-0.19217,0.07884c0.08623,-0.67261 0.12812,-1.34275 0.23159,-2.00058l0.53464,-3.34826l-3.15855,1.13333l-41.3445,14.84421l44.49074,15.96522z"></path><path d="M239.48833,94.19016l-0.06652,0.19957l3.53304,-0.32768c2.33565,-0.20203 4.6787,-0.32275 7.04392,-0.32275c2.36522,0 4.71073,0.12072 7.04638,0.32275l3.53058,0.32768l-0.06899,-0.19957c0.66275,0.09116 1.33536,0.13304 1.99073,0.24145l3.29899,0.53957l-15.80015,-44.97117l-1.87,5.32913l-13.93508,39.63958l3.31131,-0.53957c0.65536,-0.10594 1.32797,-0.14783 1.9858,-0.23899z"></path><path d="M297.71458,109.78581h-0.01725l0.64797,0.54942c1.33044,1.04957 2.54015,2.23217 3.79667,3.36551c2.30609,2.06464 4.49145,4.27464 6.54623,6.59305c1.07667,1.21217 2.18044,2.39232 3.17826,3.67102l0.83029,1.01261l0.01478,-0.02957c0.39913,0.51986 0.83029,1.01507 1.21464,1.55217l1.9587,2.75449l20.37537,-43.28349l-5.06797,2.45145l-37.72523,18.1629l2.71015,1.97348c0.52971,0.38188 1.02246,0.82044 1.53739,1.22696z"></path><path d="M327.36357,189.1512l44.50798,-15.98l-44.50798,-15.9529l0.5371,3.33594c0.09855,0.65783 0.15029,1.33536 0.23652,2.00058l-0.19217,-0.07884l0.32275,3.59464c0.1971,2.35536 0.32029,4.72797 0.32029,7.12029c0,2.38493 -0.12319,4.76 -0.32029,7.1129l-0.32275,3.58725l0.19217,-0.07145c-0.08623,0.66768 -0.13797,1.34275 -0.23652,2.00058z"></path><path d="M260.51413,252.1818l0.06899,-0.19957l-3.5429,0.32768c-2.33565,0.20203 -4.6787,0.32522 -7.04638,0.32522c-2.36522,0 -4.70826,-0.12319 -7.04392,-0.32522l-3.5429,-0.32768l0.07145,0.19957c-0.65783,-0.09609 -1.32797,-0.1429 -1.97594,-0.24638l-3.29899,-0.52725l1.11362,3.17826l14.66928,41.79045l15.80508,-44.9761l-3.29899,0.53464c-0.65043,0.10348 -1.31812,0.14783 -1.97841,0.24638z"></path><path d="M313.92618,219.86454c-0.36217,0.51739 -0.77855,0.98551 -1.15797,1.49058l-0.05667,-0.13058l-2.29377,2.7742c-2.46377,2.98609 -5.23797,5.86131 -8.10334,8.48029c-1.47087,1.32058 -2.87768,2.72739 -4.43725,3.93464c-0.52232,0.39913 -1.01261,0.83768 -1.54232,1.23188l-2.6929,1.97594l42.64537,20.61928l-20.40247,-43.10364z"></path><path d="M202.12528,236.46295l0.15275,-0.07145l-2.70029,-2.29377c-3.52565,-2.98362 -6.87884,-6.37623 -9.8329,-9.93638l-2.27899,-2.73725l-0.07145,0.15275c-0.43362,-0.57652 -0.90913,-1.12101 -1.32797,-1.70739l-1.96609,-2.74464l-1.43391,3.06l-18.72711,39.98943l42.61088,-20.37044l-2.73232,-1.99319c-0.58145,-0.41884 -1.12594,-0.9042 -1.69261,-1.34768z"></path><path d="M306.05936,214.6241c9.05435,-12.52334 13.43986,-27.05957 13.43986,-41.45537c0,-21.60232 -9.83783,-42.92624 -28.38508,-56.68147c-12.38783,-9.18 -26.76638,-13.6 -41.01436,-13.6c-21.3658,0 -42.45813,9.93884 -56.0532,28.70291c-9.08392,12.49131 -13.45464,27.04972 -13.45464,41.45784c0,21.59493 9.8329,42.93117 28.39494,56.679c12.3558,9.15536 26.75407,13.59508 40.99958,13.59508c21.3658,0.00246 42.47045,-9.94377 56.07291,-28.69798z"></path></g></g></svg>